<svg width="486" height="585" viewBox="0 0 486 585" fill="none" xmlns="http://www.w3.org/2000/svg">
<path d="M218.5 519.5C219.5 518 213 514 202 519.5C194 520.667 130.2 523.9 127 527.5C123 532 115.5 553.5 127 571C138.5 588.5 351.647 587.891 362 571C371.5 555.5 366.5 534.5 362 527.5C359.058 522.924 291 520.333 283.5 519.5C282.989 519.245 282.47 518.966 281.945 518.665C275.973 515.717 267.752 514.414 265 519C259.5 515.5 247 524.5 242 534.5C236.5 524 223.5 516 218.5 519.5Z" fill="#048A81"/>
<path d="M242.5 1C211 32.5 165 102.5 157.5 236C125 207.5 43 168.5 1 170C7 304 81 355 137 397C90.5 391.5 21.5 433.5 6 460.5C78.5 442 159.5 438.5 238 459.5C235.5 498 202 519.5 202 519.5C213 514 219.5 518 218.5 519.5C223.5 516 236.5 524 242 534.5C247 524.5 259.5 515.5 265 519C267.752 514.414 275.973 515.717 281.945 518.665C267.027 510.13 246.5 483.649 246.5 459.5C308 442 386 438 478.5 460.5C472.5 444 401.5 390 348 397C412 350.5 477 302 485 170C436.5 165 337 224 328.5 236C327 202.5 300 56 242.5 1Z" fill="#C9ECF8"/>
<path d="M202 519.5C202 519.5 235.5 498 238 459.5C159.5 438.5 78.5 442 6 460.5C21.5 433.5 90.5 391.5 137 397C81 355 7 304 1 170C43 168.5 125 207.5 157.5 236C165 102.5 211 32.5 242.5 1C300 56 327 202.5 328.5 236C337 224 436.5 165 485 170C477 302 412 350.5 348 397C401.5 390 472.5 444 478.5 460.5C386 438 308 442 246.5 459.5C246.5 483.649 267.027 510.13 281.945 518.665M202 519.5C213 514 219.5 518 218.5 519.5C223.5 516 236.5 524 242 534.5C247 524.5 259.5 515.5 265 519C267.752 514.414 275.973 515.717 281.945 518.665M202 519.5C194 520.667 130.2 523.9 127 527.5C123 532 115.5 553.5 127 571C138.5 588.5 351.647 587.891 362 571C371.5 555.5 366.5 534.5 362 527.5C359.058 522.923 291 520.333 283.5 519.5M283.5 519.5C282.989 519.245 282.47 518.966 281.945 518.665M283.5 519.5C283.004 519.21 282.483 518.931 281.945 518.665" stroke="#6A4839"/>
<path d="M202 519.5C202 519.5 235.5 498 238 459.5C159.5 438.5 78.5 442 6 460.5C21.5 433.5 90.5 391.5 137 397C81 355 7 304 1 170C43 168.5 125 207.5 157.5 236C165 102.5 211 32.5 242.5 1C300 56 327 202.5 328.5 236C337 224 436.5 165 485 170C477 302 412 350.5 348 397C401.5 390 472.5 444 478.5 460.5C386 438 308 442 246.5 459.5C246.5 483.649 267.027 510.13 281.945 518.665M202 519.5C213 514 219.5 518 218.5 519.5C223.5 516 236.5 524 242 534.5C247 524.5 259.5 515.5 265 519C267.752 514.414 275.973 515.717 281.945 518.665M202 519.5C194 520.667 130.2 523.9 127 527.5C123 532 115.5 553.5 127 571C138.5 588.5 351.647 587.891 362 571C371.5 555.5 366.5 534.5 362 527.5C359.058 522.923 291 520.333 283.5 519.5M283.5 519.5C282.989 519.245 282.47 518.966 281.945 518.665M283.5 519.5C283.004 519.21 282.483 518.931 281.945 518.665" stroke="#048A81"/>
<g filter="url(#filter0_d_69_7)">
<path d="M188.976 558.464C188.976 564.011 186.843 569.024 182.576 573.504C181.68 574.443 180.443 574.912 178.864 574.912C176.304 574.912 174.192 574.272 172.528 572.992C169.456 570.645 167.92 565.952 167.92 558.912C167.92 554.261 168.859 549.355 170.736 544.192C172.613 539.029 175.003 534.315 177.904 530.048C178.331 529.536 178.651 529.28 178.864 529.28C179.077 529.28 179.312 529.344 179.568 529.472C179.867 529.6 180.165 529.749 180.464 529.92C180.805 530.091 181.04 530.197 181.168 530.24V528.32C180.912 527.808 180.784 527.36 180.784 526.976C180.784 526.592 180.955 526.4 181.296 526.4C181.637 526.4 182 526.464 182.384 526.592C186.139 527.872 188.016 530.944 188.016 535.808C188.016 538.581 187.312 541.419 185.904 544.32C185.52 545.088 185.179 545.472 184.88 545.472C184.667 545.472 184.347 545.131 183.92 544.448C182.555 541.632 181.68 537.984 181.296 533.504C180.656 533.504 180.187 533.739 179.888 534.208C179.589 534.677 179.077 535.915 178.352 537.92C175.664 545.173 174.32 552.619 174.32 560.256C174.32 564.48 174.789 568.085 175.728 571.072C178.501 568.469 180.891 565.248 182.896 561.408C184.944 557.525 186.459 553.557 187.44 549.504C188.464 552.875 188.976 555.861 188.976 558.464ZM210.851 564.352C210.851 570.837 207.565 574.08 200.995 574.08C198.264 574.08 196.259 573.376 194.979 571.968C193.741 570.56 192.653 568.405 191.715 565.504C191.373 564.395 191.203 563.221 191.203 561.984C191.203 560.704 191.757 559.019 192.867 556.928C194.019 554.795 195.277 552.939 196.643 551.36C196.813 549.013 197.347 547.84 198.243 547.84C198.712 547.84 199.032 548.117 199.203 548.672C200.099 547.861 201.187 547.072 202.467 546.304C203.747 545.536 204.899 545.152 205.923 545.152C206.947 545.152 207.992 545.749 209.059 546.944C210.168 548.139 210.723 549.376 210.723 550.656C210.723 551.893 209.848 553.6 208.099 555.776C204.813 559.872 202.232 561.92 200.355 561.92C198.989 561.92 197.923 560.789 197.155 558.528C197.112 558.613 196.899 558.976 196.515 559.616C196.173 560.213 195.917 560.661 195.747 560.96C195.619 561.259 195.427 561.664 195.171 562.176C194.744 563.157 194.531 564.032 194.531 564.8C194.531 566.549 195.405 567.424 197.155 567.424C200.056 567.424 202.509 566.827 204.515 565.632C206.563 564.395 208.589 562.539 210.595 560.064C210.765 561.941 210.851 563.371 210.851 564.352ZM200.419 556.608C201.101 556.608 202.104 555.776 203.427 554.112C204.792 552.448 205.475 551.317 205.475 550.72C205.475 550.08 205.24 549.76 204.771 549.76C204.344 549.76 203.576 550.315 202.467 551.424C201.4 552.533 200.547 553.493 199.907 554.304C199.821 554.816 199.779 555.2 199.779 555.456C199.779 556.224 199.992 556.608 200.419 556.608ZM234.589 558.592C234.589 560.683 234.482 562.496 234.269 564.032C234.056 565.568 233.288 567.637 231.965 570.24C230.642 572.8 229.341 574.08 228.061 574.08C227.506 574.08 226.973 573.781 226.461 573.184C223.944 570.155 222.685 567.275 222.685 564.544C222.685 563.733 222.962 561.877 223.517 558.976C224.285 554.624 224.669 552.213 224.669 551.744C224.669 551.232 224.584 550.976 224.413 550.976C224.285 550.976 224.136 551.147 223.965 551.488C222.856 553.451 221.96 555.691 221.277 558.208C220.594 560.683 220.146 562.773 219.933 564.48C219.72 566.187 219.485 568.576 219.229 571.648C219.229 572.715 218.952 573.248 218.397 573.248C218.141 573.248 217.714 573.013 217.117 572.544C214.813 570.581 213.661 567.893 213.661 564.48C213.661 563.029 213.789 561.024 214.045 558.464C214.344 555.904 214.514 554.133 214.557 553.152C215.026 547.221 215.602 544.256 216.285 544.256C216.669 544.256 216.946 544.683 217.117 545.536C217.288 546.347 217.373 547.285 217.373 548.352C217.373 549.376 217.394 550.315 217.437 551.168C217.522 552.021 217.693 552.448 217.949 552.448C218.205 552.448 218.568 551.765 219.037 550.4C219.506 549.035 220.189 547.669 221.085 546.304C222.024 544.896 223.026 544.192 224.093 544.192C225.16 544.192 226.098 544.427 226.909 544.896C228.744 545.835 229.661 547.797 229.661 550.784C229.661 551.808 229.533 553.067 229.277 554.56C229.021 556.053 228.786 557.696 228.573 559.488C228.402 561.237 228.317 562.24 228.317 562.496C228.317 562.709 228.402 562.816 228.573 562.816C228.914 562.816 229.768 561.963 231.133 560.256C232.541 558.549 233.501 557.696 234.013 557.696C234.397 557.696 234.589 557.995 234.589 558.592ZM245.635 559.296C245.635 551.275 246.915 543.701 249.475 536.576C247.64 536.363 246.531 536.256 246.147 536.256C244.44 536.256 243.032 536.597 241.923 537.28C240.856 537.92 239.768 538.688 238.659 539.584C237.037 540.949 235.352 541.632 233.602 541.632C232.877 541.632 232.322 541.483 231.938 541.184C231.554 540.843 231.32 540.501 231.234 540.16C231.149 539.819 231.085 539.307 231.042 538.624C231 537.941 230.936 537.408 230.85 537.024C230.765 536.64 230.722 536.256 230.722 535.872C230.722 535.488 231.042 535.019 231.682 534.464C235.352 531.221 240.835 529.6 248.131 529.6C249.539 529.6 250.947 529.664 252.355 529.792L252.867 528.64C253.08 528.939 253.357 529.344 253.699 529.856H254.915C258.925 529.856 263.32 529.045 268.099 527.424C268.44 527.339 268.675 527.296 268.803 527.296C269.485 527.296 269.826 527.659 269.826 528.384C269.826 529.109 269.443 529.856 268.675 530.624C264.877 534.805 259.821 536.853 253.507 536.768C252.44 540.907 251.715 545.963 251.331 551.936C250.947 557.909 250.712 561.301 250.627 562.112C250.541 562.923 250.499 563.627 250.499 564.224C250.499 564.821 250.691 565.995 251.075 567.744C251.459 569.493 251.651 570.496 251.651 570.752C251.651 571.989 251.011 572.608 249.731 572.608C247.768 572.608 245.72 570.432 243.587 566.08C243.16 565.312 242.947 564.587 242.947 563.904C242.947 563.179 243.117 562.816 243.459 562.816C243.8 562.816 244.205 563.157 244.675 563.84C245.187 564.523 245.507 564.864 245.635 564.864C245.763 564.864 245.827 564.693 245.827 564.352L245.635 559.296ZM276.166 558.4C276.465 558.4 276.614 559.296 276.614 561.088C276.614 562.837 276.017 564.608 274.822 566.4C274.31 567.424 273.478 568.619 272.326 569.984C271.217 571.307 270.47 572.117 270.086 572.416C268.934 573.227 267.995 573.632 267.27 573.632C266.587 573.632 266.075 573.589 265.734 573.504C265.393 573.419 265.051 573.248 264.71 572.992C264.411 572.693 264.155 572.48 263.942 572.352C263.771 572.181 263.537 571.883 263.238 571.456C262.982 570.987 262.811 570.688 262.726 570.56C262.641 570.432 262.449 570.091 262.15 569.536C261.851 568.981 261.702 568.683 261.702 568.64C260.891 567.147 260.486 565.739 260.486 564.416C260.486 563.051 260.593 561.792 260.806 560.64C261.062 559.445 261.446 557.995 261.958 556.288C262.47 554.581 262.79 553.493 262.918 553.024C262.278 553.835 261.425 554.709 260.358 555.648C259.931 555.989 259.462 556.16 258.95 556.16C258.481 556.16 258.075 555.947 257.734 555.52C257.435 555.051 257.03 554.069 256.518 552.576C256.006 551.083 255.75 550.08 255.75 549.568C255.75 549.013 256.091 548.181 256.774 547.072C257.457 545.92 257.862 545.152 257.99 544.768C258.203 544 258.523 543.616 258.95 543.616C259.163 543.616 259.675 543.851 260.486 544.32C261.297 544.747 261.83 545.6 262.086 546.88C262.171 547.392 262.363 547.648 262.662 547.648C262.79 547.648 263.153 547.413 263.75 546.944C264.39 546.475 265.073 546.24 265.798 546.24C266.566 546.24 267.697 546.923 269.19 548.288C269.702 548.8 269.958 549.525 269.958 550.464C269.958 551.403 269.894 552.064 269.766 552.448C269.681 552.832 269.574 553.088 269.446 553.216C269.062 553.515 268.763 553.941 268.55 554.496C268.379 555.008 267.803 557.013 266.822 560.512C265.883 563.968 265.414 565.867 265.414 566.208C265.414 566.549 265.542 566.72 265.798 566.72C266.139 566.72 267.505 565.696 269.894 563.648C272.283 561.6 274.011 560.085 275.078 559.104C275.718 558.635 276.081 558.4 276.166 558.4ZM295.663 564.352C295.663 570.837 292.378 574.08 285.807 574.08C283.076 574.08 281.071 573.376 279.791 571.968C278.554 570.56 277.466 568.405 276.527 565.504C276.186 564.395 276.015 563.221 276.015 561.984C276.015 560.704 276.57 559.019 277.679 556.928C278.831 554.795 280.09 552.939 281.455 551.36C281.626 549.013 282.159 547.84 283.055 547.84C283.524 547.84 283.844 548.117 284.015 548.672C284.911 547.861 285.999 547.072 287.279 546.304C288.559 545.536 289.711 545.152 290.735 545.152C291.759 545.152 292.804 545.749 293.871 546.944C294.98 548.139 295.535 549.376 295.535 550.656C295.535 551.893 294.66 553.6 292.911 555.776C289.626 559.872 287.044 561.92 285.167 561.92C283.802 561.92 282.735 560.789 281.967 558.528C281.924 558.613 281.711 558.976 281.327 559.616C280.986 560.213 280.73 560.661 280.559 560.96C280.431 561.259 280.239 561.664 279.983 562.176C279.556 563.157 279.343 564.032 279.343 564.8C279.343 566.549 280.218 567.424 281.967 567.424C284.868 567.424 287.322 566.827 289.327 565.632C291.375 564.395 293.402 562.539 295.407 560.064C295.578 561.941 295.663 563.371 295.663 564.352ZM285.231 556.608C285.914 556.608 286.916 555.776 288.239 554.112C289.604 552.448 290.287 551.317 290.287 550.72C290.287 550.08 290.052 549.76 289.583 549.76C289.156 549.76 288.388 550.315 287.279 551.424C286.212 552.533 285.359 553.493 284.719 554.304C284.634 554.816 284.591 555.2 284.591 555.456C284.591 556.224 284.804 556.608 285.231 556.608ZM317.226 564.352C317.226 570.837 313.94 574.08 307.37 574.08C304.639 574.08 302.634 573.376 301.354 571.968C300.116 570.56 299.028 568.405 298.09 565.504C297.748 564.395 297.578 563.221 297.578 561.984C297.578 560.704 298.132 559.019 299.242 556.928C300.394 554.795 301.652 552.939 303.018 551.36C303.188 549.013 303.722 547.84 304.618 547.84C305.087 547.84 305.407 548.117 305.578 548.672C306.474 547.861 307.562 547.072 308.842 546.304C310.122 545.536 311.274 545.152 312.298 545.152C313.322 545.152 314.367 545.749 315.434 546.944C316.543 548.139 317.098 549.376 317.098 550.656C317.098 551.893 316.223 553.6 314.474 555.776C311.188 559.872 308.607 561.92 306.73 561.92C305.364 561.92 304.298 560.789 303.53 558.528C303.487 558.613 303.274 558.976 302.89 559.616C302.548 560.213 302.292 560.661 302.122 560.96C301.994 561.259 301.802 561.664 301.546 562.176C301.119 563.157 300.906 564.032 300.906 564.8C300.906 566.549 301.78 567.424 303.53 567.424C306.431 567.424 308.884 566.827 310.89 565.632C312.938 564.395 314.964 562.539 316.97 560.064C317.14 561.941 317.226 563.371 317.226 564.352ZM306.794 556.608C307.476 556.608 308.479 555.776 309.802 554.112C311.167 552.448 311.85 551.317 311.85 550.72C311.85 550.08 311.615 549.76 311.146 549.76C310.719 549.76 309.951 550.315 308.842 551.424C307.775 552.533 306.922 553.493 306.282 554.304C306.196 554.816 306.154 555.2 306.154 555.456C306.154 556.224 306.367 556.608 306.794 556.608Z" fill="white"/>
</g>
<path fill-rule="evenodd" clip-rule="evenodd" d="M242.5 56C235.5 72.5 236.5 278.5 236.5 278.5C236.5 278.5 226 355.5 208.5 372C206.541 373.847 197.381 376.998 191 372C161 348.5 69.5 262 46 225.5C57.1966 251.892 135.872 334.889 170.256 371.163L170.259 371.165C178.867 380.246 184.699 386.398 186 388C192.5 396 197.5 416 173 419.5C145.167 422.5 67 425.5 54 441C91.5 426 235 427.5 238 461C238 474.926 228.6 503.694 201.435 520.237C205.652 517.768 214.673 514.69 219.5 520C228.5 515.5 241 532.5 242.5 535.5C244 532.5 256.5 515 265.5 519.5C270.327 514.19 279.348 517.268 283.565 519.737C256.4 503.194 247 474.926 247 461C250 427.5 393.5 426 431 441C418 425.5 339.833 422.5 312 419.5C287.5 416 292.5 396 299 388C300.301 386.398 306.132 380.247 314.74 371.167L314.744 371.163C349.128 334.889 427.803 251.892 439 225.5C415.5 262 324 348.5 294 372C287.619 376.998 278.459 373.847 276.5 372C259 355.5 248.5 278.5 248.5 278.5C248.5 278.5 249.5 72.5 242.5 56ZM212 418.5C212 412.554 192.5 392 192.5 392C193.922 396.265 200 410.5 186.5 419C195.309 418 208.155 417.692 212 418.5ZM236.5 297L229.5 395.5C222.5 394 199.5 378.5 199.5 378.5C221.768 386.208 227.898 348.805 233.597 314.035L233.597 314.034C234.552 308.207 235.495 302.454 236.5 297ZM273 418.5C273 412.554 292.5 392 292.5 392C291.078 396.265 285 410.5 298.5 419C289.691 418 276.845 417.692 273 418.5ZM248.5 297L255.5 395.5C262.5 394 285.5 378.5 285.5 378.5C263.232 386.208 257.102 348.805 251.403 314.035L251.403 314.034C250.448 308.207 249.505 302.454 248.5 297Z" fill="#6A4839"/>
<path d="M201.435 520.237C228.6 503.694 238 474.926 238 461C235 427.5 91.5 426 54 441C67 425.5 145.167 422.5 173 419.5C197.5 416 192.5 396 186 388C184.699 386.398 178.867 380.246 170.259 371.165L170.256 371.163C135.872 334.889 57.1966 251.892 46 225.5C69.5 262 161 348.5 191 372C197.381 376.998 206.541 373.847 208.5 372C226 355.5 236.5 278.5 236.5 278.5C236.5 278.5 235.5 72.5 242.5 56C249.5 72.5 248.5 278.5 248.5 278.5C248.5 278.5 259 355.5 276.5 372C278.459 373.847 287.619 376.998 294 372C324 348.5 415.5 262 439 225.5C427.803 251.892 349.128 334.889 314.744 371.163L314.74 371.167C306.132 380.247 300.301 386.398 299 388C292.5 396 287.5 416 312 419.5C339.833 422.5 418 425.5 431 441C393.5 426 250 427.5 247 461C247 474.926 256.4 503.194 283.565 519.737M201.435 520.237C201.29 520.325 206.645 523.413 206.5 523.5C206.638 523.413 201.284 520.326 201.435 520.237ZM201.435 520.237C205.652 517.768 214.673 514.69 219.5 520C228.5 515.5 241 532.5 242.5 535.5C244 532.5 256.5 515 265.5 519.5C270.327 514.19 279.348 517.268 283.565 519.737M283.565 519.737C283.716 519.826 289.362 522.913 289.5 523C289.355 522.913 283.71 519.825 283.565 519.737ZM192.5 392C192.5 392 212 412.554 212 418.5C208.155 417.692 195.309 418 186.5 419C200 410.5 193.922 396.265 192.5 392ZM229.5 395.5L236.5 297C235.495 302.454 234.552 308.207 233.597 314.034L233.597 314.035C227.898 348.805 221.768 386.208 199.5 378.5C199.5 378.5 222.5 394 229.5 395.5ZM292.5 392C292.5 392 273 412.554 273 418.5C276.845 417.692 289.691 418 298.5 419C285 410.5 291.078 396.265 292.5 392ZM255.5 395.5L248.5 297C249.505 302.454 250.448 308.207 251.403 314.034L251.403 314.035C257.102 348.805 263.232 386.208 285.5 378.5C285.5 378.5 262.5 394 255.5 395.5Z" stroke="#048A81"/>
<defs>
<filter id="filter0_d_69_7" x="167.92" y="526.4" width="157.306" height="56.512" filterUnits="userSpaceOnUse" color-interpolation-filters="sRGB">
<feFlood flood-opacity="0" result="BackgroundImageFix"/>
<feColorMatrix in="SourceAlpha" type="matrix" values="0 0 0 0 0 0 0 0 0 0 0 0 0 0 0 0 0 0 127 0" result="hardAlpha"/>
<feOffset dx="4" dy="4"/>
<feGaussianBlur stdDeviation="2"/>
<feComposite in2="hardAlpha" operator="out"/>
<feColorMatrix type="matrix" values="0 0 0 0 0.30803 0 0 0 0 0.265189 0 0 0 0 0.246289 0 0 0 0.5 0"/>
<feBlend mode="normal" in2="BackgroundImageFix" result="effect1_dropShadow_69_7"/>
<feBlend mode="normal" in="SourceGraphic" in2="effect1_dropShadow_69_7" result="shape"/>
</filter>
</defs>
</svg>
